<svg id="visual" viewBox="0 0 900 600" width="900" height="600" xmlns="http://www.w3.org/2000/svg" xmlns:xlink="http://www.w3.org/1999/xlink" version="1.1"><rect x="0" y="0" width="900" height="600" fill="#002233"></rect><path d="M0 413L21.5 429.5C43 446 86 479 128.8 479.5C171.7 480 214.3 448 257.2 432C300 416 343 416 385.8 433.5C428.7 451 471.3 486 514.2 503.3C557 520.7 600 520.3 642.8 518.8C685.7 517.3 728.3 514.7 771.2 505.8C814 497 857 482 878.5 474.5L900 467L900 601L878.5 601C857 601 814 601 771.2 601C728.3 601 685.7 601 642.8 601C600 601 557 601 514.2 601C471.3 601 428.7 601 385.8 601C343 601 300 601 257.2 601C214.3 601 171.7 601 128.8 601C86 601 43 601 21.5 601L0 601Z" fill="#0066FF" stroke-linecap="round" stroke-linejoin="miter"></path></svg>